<?xml version="1.0" standalone="no"?>
<!DOCTYPE svg PUBLIC "-//W3C//DTD SVG 20010904//EN"
 "http://www.w3.org/TR/2001/REC-SVG-20010904/DTD/svg10.dtd">
<svg version="1.0" xmlns="http://www.w3.org/2000/svg"
 width="400.000000pt" height="400.000000pt" viewBox="0 0 400.000000 400.000000"
 preserveAspectRatio="xMidYMid meet">
<metadata>
Created by potrace 1.16, written by Peter Selinger 2001-2019
</metadata>
<g transform="translate(0.000000,400.000000) scale(0.100000,-0.100000)"
fill="#000000" stroke="none">
<path d="M0 2000 l0 -2000 2000 0 2000 0 0 2000 0 2000 -2000 0 -2000 0 0
-2000z m3375 501 c73 -36 117 -82 154 -161 24 -50 26 -66 26 -185 0 -114 -3
-136 -23 -181 -53 -116 -181 -194 -322 -194 -165 0 -292 89 -335 233 -29 99
-16 269 29 355 36 69 132 140 220 163 17 5 66 7 110 4 62 -2 91 -9 141 -34z
m-2830 19 c46 -17 52 -54 54 -295 2 -195 4 -223 20 -245 22 -31 76 -46 113
-31 45 17 59 51 65 153 4 83 7 95 29 116 32 28 66 28 100 -2 26 -22 28 -30 32
-117 5 -107 11 -123 54 -145 39 -20 87 -12 119 22 24 25 24 28 27 252 1 125 4
237 7 249 7 29 57 55 90 47 14 -3 34 -18 45 -31 19 -24 20 -41 20 -253 0 -257
-8 -300 -65 -367 -20 -23 -60 -54 -91 -69 -74 -36 -157 -31 -238 14 l-54 31
-26 -20 c-119 -94 -309 -48 -384 95 -27 51 -27 52 -30 291 -3 258 0 278 48
302 30 15 32 16 65 3z m1695 -1 c25 -5 62 -21 82 -34 l37 -24 62 32 c140 72
291 21 361 -122 22 -44 23 -56 23 -294 l0 -249 -28 -24 c-36 -30 -68 -30 -104
0 l-28 24 -3 238 c-3 264 -5 274 -66 294 -27 9 -41 8 -68 -3 -53 -22 -68 -64
-68 -193 0 -97 -2 -110 -22 -131 -24 -25 -72 -30 -99 -10 -32 24 -39 56 -39
166 0 107 -1 112 -27 141 -37 40 -78 47 -121 20 -18 -11 -37 -32 -42 -46 -6
-14 -10 -126 -10 -250 l0 -225 -25 -24 c-15 -16 -36 -25 -55 -25 -19 0 -40 9
-55 25 l-25 24 0 239 c0 264 6 298 61 365 43 52 127 93 194 96 11 0 40 -4 65
-10z"/>
<path d="M3125 2361 c-76 -35 -105 -92 -105 -208 0 -132 47 -194 158 -209 98
-13 176 27 210 106 8 20 15 67 15 111 1 101 -28 163 -92 196 -54 28 -130 30
-186 4z"/>
</g>
</svg>
